#N canvas 0 25 1433 847 12;
#X obj 554 357 s v2p;
#X obj 469 321 loadbang;
#X msg 529 339 -12;
#X obj 779 318 loadbang;
#X obj 864 354 s v3p;
#X obj 92 319 loadbang;
#X msg 152 337 0;
#N canvas 26 45 1414 794 Playback 1;
#X obj 333 77 adc~ 1 2;
#N canvas 106 42 1334 830 voice1L 0;
#N canvas 373 87 629 300 hann 0;
#X obj 75 81 sig~ 1;
#X obj 93 150 cos~;
#X obj 75 176 -~;
#X text 223 151 n = number of cycles \, N = sample length;
#X text 258 121 Hanning Window = 0.5[1-cos(2πn/N)];
#X obj 75 199 *~ 0.5;
#X obj 93 118 inlet~;
#X obj 75 222 outlet~;
#X connect 0 0 2 0;
#X connect 1 0 2 1;
#X connect 2 0 5 0;
#X connect 5 0 7 0;
#X connect 6 0 1 0;
#X restore 375 626 pd hann;
#X text 94 276 Multiply window size by playback pitch;
#X text 434 627 Hanning Window;
#X obj 375 342 phasor~;
#X obj 356 679 *~;
#X text 264 592 Audio buffer;
#X text 109 340 0 to 1 \, play through buffer postiion;
#X obj 471 392 / 44.1;
#X floatatom 375 306 5 0 0 0 - - -;
#X floatatom 471 421 5 0 0 0 - - -;
#X obj 620 168 t b f;
#X obj 356 560 *~;
#X obj 332 470 *~ -1;
#X obj 332 493 +~ 1;
#X obj 399 497 samphold~;
#X obj 398 462 sig~;
#N canvas 373 87 629 300 hann 0;
#X obj 75 81 sig~ 1;
#X obj 93 150 cos~;
#X obj 75 176 -~;
#X text 223 151 n = number of cycles \, N = sample length;
#X text 258 121 Hanning Window = 0.5[1-cos(2πn/N)];
#X obj 75 199 *~ 0.5;
#X obj 93 118 inlet~;
#X obj 75 222 outlet~;
#X connect 0 0 2 0;
#X connect 1 0 2 1;
#X connect 2 0 5 0;
#X connect 5 0 7 0;
#X connect 6 0 1 0;
#X restore 647 629 pd hann;
#X text 707 628 Hanning Window;
#X obj 628 682 *~;
#X text 678 597 Audio buffer;
#X obj 628 563 *~;
#X obj 604 473 *~ -1;
#X obj 604 496 +~ 1;
#X obj 670 498 samphold~;
#X obj 670 471 sig~;
#X obj 630 419 wrap~;
#X obj 629 392 +~ 0.5;
#X text 748 499 Phase-shifted 2nd grain to smooth grain playback;
#X obj 493 736 *~;
#X obj 493 778 outlet~;
#X floatatom 375 226 20 0 0 0 - - -;
#X obj 372 23 r v1w;
#X obj 372 62 t b f;
#X obj 620 90 r v1p;
#X obj 511 666 r v1v;
#X floatatom 511 689 5 0 0 0 - - -;
#X obj 915 672 r v1f;
#X obj 897 741 *~;
#X floatatom 915 704 5 0 0 0 - - -;
#X obj 375 276 expr (pow(2 \, ($f2/12)) -1) * (44100/$f1);
#X obj 356 593 vd~ v1L;
#X obj 628 596 vd~ v1L;
#X floatatom 621 130 5 0 0 0 - - -;
#X obj 897 776 s~ v1Lfeedback;
#X connect 0 0 4 1;
#X connect 3 0 0 0;
#X connect 3 0 12 0;
#X connect 3 0 14 1;
#X connect 3 0 26 0;
#X connect 4 0 28 0;
#X connect 7 0 9 0;
#X connect 8 0 3 0;
#X connect 9 0 15 0;
#X connect 9 0 24 0;
#X connect 10 0 30 0;
#X connect 10 1 39 1;
#X connect 11 0 40 0;
#X connect 12 0 13 0;
#X connect 13 0 11 0;
#X connect 14 0 11 1;
#X connect 15 0 14 0;
#X connect 16 0 18 1;
#X connect 18 0 28 0;
#X connect 20 0 41 0;
#X connect 21 0 22 0;
#X connect 22 0 20 0;
#X connect 23 0 20 1;
#X connect 24 0 23 0;
#X connect 25 0 21 0;
#X connect 25 0 23 1;
#X connect 25 0 16 0;
#X connect 26 0 25 0;
#X connect 28 0 29 0;
#X connect 28 0 37 0;
#X connect 30 0 7 0;
#X connect 30 0 39 0;
#X connect 31 0 32 0;
#X connect 32 0 42 0;
#X connect 32 1 30 0;
#X connect 33 0 42 0;
#X connect 34 0 35 0;
#X connect 35 0 28 1;
#X connect 36 0 38 0;
#X connect 37 0 43 0;
#X connect 38 0 37 1;
#X connect 39 0 8 0;
#X connect 40 0 4 0;
#X connect 41 0 18 0;
#X connect 42 0 10 0;
#X restore 685 83 pd voice1L;
#X obj 161 431 delwrite~ v1L 5000;
#X obj 443 426 delwrite~ v1R 5000;
#N canvas 106 42 1334 830 voice2L 0;
#N canvas 373 87 629 300 hann 0;
#X obj 75 81 sig~ 1;
#X obj 93 150 cos~;
#X obj 75 176 -~;
#X text 223 151 n = number of cycles \, N = sample length;
#X text 258 121 Hanning Window = 0.5[1-cos(2πn/N)];
#X obj 75 199 *~ 0.5;
#X obj 93 118 inlet~;
#X obj 75 222 outlet~;
#X connect 0 0 2 0;
#X connect 1 0 2 1;
#X connect 2 0 5 0;
#X connect 5 0 7 0;
#X connect 6 0 1 0;
#X restore 375 626 pd hann;
#X text 94 276 Multiply window size by playback pitch;
#X text 434 627 Hanning Window;
#X obj 375 342 phasor~;
#X obj 356 679 *~;
#X text 264 592 Audio buffer;
#X text 109 340 0 to 1 \, play through buffer postiion;
#X obj 471 392 / 44.1;
#X floatatom 375 306 5 0 0 0 - - -;
#X floatatom 471 421 5 0 0 0 - - -;
#X obj 620 168 t b f;
#X obj 356 560 *~;
#X obj 332 470 *~ -1;
#X obj 332 493 +~ 1;
#X obj 399 497 samphold~;
#X obj 398 462 sig~;
#N canvas 373 87 629 300 hann 0;
#X obj 75 81 sig~ 1;
#X obj 93 150 cos~;
#X obj 75 176 -~;
#X text 223 151 n = number of cycles \, N = sample length;
#X text 258 121 Hanning Window = 0.5[1-cos(2πn/N)];
#X obj 75 199 *~ 0.5;
#X obj 93 118 inlet~;
#X obj 75 222 outlet~;
#X connect 0 0 2 0;
#X connect 1 0 2 1;
#X connect 2 0 5 0;
#X connect 5 0 7 0;
#X connect 6 0 1 0;
#X restore 647 629 pd hann;
#X text 707 628 Hanning Window;
#X obj 628 682 *~;
#X text 678 597 Audio buffer;
#X obj 628 563 *~;
#X obj 604 473 *~ -1;
#X obj 604 496 +~ 1;
#X obj 670 498 samphold~;
#X obj 670 471 sig~;
#X obj 630 419 wrap~;
#X obj 629 392 +~ 0.5;
#X text 748 499 Phase-shifted 2nd grain to smooth grain playback;
#X obj 493 736 *~;
#X obj 493 778 outlet~;
#X floatatom 375 226 20 0 0 0 - - -;
#X obj 372 23 r v1w;
#X obj 372 62 t b f;
#X obj 511 666 r v1v;
#X floatatom 511 689 5 0 0 0 - - -;
#X obj 915 672 r v1f;
#X obj 897 741 *~;
#X floatatom 915 704 5 0 0 0 - - -;
#X obj 375 276 expr (pow(2 \, ($f2/12)) -1) * (44100/$f1);
#X floatatom 621 130 5 0 0 0 - - -;
#X obj 897 776 s~ v2Lfeedback;
#X obj 356 593 vd~ v1L;
#X obj 628 596 vd~ v1L;
#X obj 620 90 r v2p;
#X connect 0 0 4 1;
#X connect 3 0 0 0;
#X connect 3 0 12 0;
#X connect 3 0 14 1;
#X connect 3 0 26 0;
#X connect 4 0 28 0;
#X connect 7 0 9 0;
#X connect 8 0 3 0;
#X connect 9 0 15 0;
#X connect 9 0 24 0;
#X connect 10 0 30 0;
#X connect 10 1 38 1;
#X connect 11 0 41 0;
#X connect 12 0 13 0;
#X connect 13 0 11 0;
#X connect 14 0 11 1;
#X connect 15 0 14 0;
#X connect 16 0 18 1;
#X connect 18 0 28 0;
#X connect 20 0 42 0;
#X connect 21 0 22 0;
#X connect 22 0 20 0;
#X connect 23 0 20 1;
#X connect 24 0 23 0;
#X connect 25 0 21 0;
#X connect 25 0 23 1;
#X connect 25 0 16 0;
#X connect 26 0 25 0;
#X connect 28 0 29 0;
#X connect 28 0 36 0;
#X connect 30 0 7 0;
#X connect 30 0 38 0;
#X connect 31 0 32 0;
#X connect 32 0 39 0;
#X connect 32 1 30 0;
#X connect 33 0 34 0;
#X connect 34 0 28 1;
#X connect 35 0 37 0;
#X connect 36 0 40 0;
#X connect 37 0 36 1;
#X connect 38 0 8 0;
#X connect 39 0 10 0;
#X connect 41 0 4 0;
#X connect 42 0 18 0;
#X connect 43 0 39 0;
#X restore 744 111 pd voice2L;
#N canvas 106 42 1334 830 voice3L 0;
#N canvas 373 87 629 300 hann 0;
#X obj 75 81 sig~ 1;
#X obj 93 150 cos~;
#X obj 75 176 -~;
#X text 223 151 n = number of cycles \, N = sample length;
#X text 258 121 Hanning Window = 0.5[1-cos(2πn/N)];
#X obj 75 199 *~ 0.5;
#X obj 93 118 inlet~;
#X obj 75 222 outlet~;
#X connect 0 0 2 0;
#X connect 1 0 2 1;
#X connect 2 0 5 0;
#X connect 5 0 7 0;
#X connect 6 0 1 0;
#X restore 375 626 pd hann;
#X text 94 276 Multiply window size by playback pitch;
#X text 434 627 Hanning Window;
#X obj 375 342 phasor~;
#X obj 356 679 *~;
#X text 264 592 Audio buffer;
#X text 109 340 0 to 1 \, play through buffer postiion;
#X obj 471 392 / 44.1;
#X floatatom 375 306 5 0 0 0 - - -;
#X floatatom 471 421 5 0 0 0 - - -;
#X obj 620 168 t b f;
#X obj 356 560 *~;
#X obj 332 470 *~ -1;
#X obj 332 493 +~ 1;
#X obj 399 497 samphold~;
#X obj 398 462 sig~;
#N canvas 373 87 629 300 hann 0;
#X obj 75 81 sig~ 1;
#X obj 93 150 cos~;
#X obj 75 176 -~;
#X text 223 151 n = number of cycles \, N = sample length;
#X text 258 121 Hanning Window = 0.5[1-cos(2πn/N)];
#X obj 75 199 *~ 0.5;
#X obj 93 118 inlet~;
#X obj 75 222 outlet~;
#X connect 0 0 2 0;
#X connect 1 0 2 1;
#X connect 2 0 5 0;
#X connect 5 0 7 0;
#X connect 6 0 1 0;
#X restore 647 629 pd hann;
#X text 707 628 Hanning Window;
#X obj 628 682 *~;
#X text 687 599 Audio buffer;
#X obj 628 563 *~;
#X obj 604 473 *~ -1;
#X obj 604 496 +~ 1;
#X obj 670 498 samphold~;
#X obj 670 471 sig~;
#X obj 630 419 wrap~;
#X obj 629 392 +~ 0.5;
#X text 748 499 Phase-shifted 2nd grain to smooth grain playback;
#X obj 493 736 *~;
#X obj 493 778 outlet~;
#X floatatom 375 226 20 0 0 0 - - -;
#X obj 372 23 r v1w;
#X obj 372 62 t b f;
#X obj 511 666 r v1v;
#X floatatom 511 689 5 0 0 0 - - -;
#X obj 915 672 r v1f;
#X obj 897 741 *~;
#X floatatom 915 704 5 0 0 0 - - -;
#X obj 375 276 expr (pow(2 \, ($f2/12)) -1) * (44100/$f1);
#X floatatom 621 130 5 0 0 0 - - -;
#X obj 897 776 s~ v3Lfeedback;
#X obj 356 593 vd~ v1L;
#X obj 628 596 vd~ v1L;
#X obj 620 90 r v3p;
#X connect 0 0 4 1;
#X connect 3 0 0 0;
#X connect 3 0 12 0;
#X connect 3 0 14 1;
#X connect 3 0 26 0;
#X connect 4 0 28 0;
#X connect 7 0 9 0;
#X connect 8 0 3 0;
#X connect 9 0 15 0;
#X connect 9 0 24 0;
#X connect 10 0 30 0;
#X connect 10 1 38 1;
#X connect 11 0 41 0;
#X connect 12 0 13 0;
#X connect 13 0 11 0;
#X connect 14 0 11 1;
#X connect 15 0 14 0;
#X connect 16 0 18 1;
#X connect 18 0 28 0;
#X connect 20 0 42 0;
#X connect 21 0 22 0;
#X connect 22 0 20 0;
#X connect 23 0 20 1;
#X connect 24 0 23 0;
#X connect 25 0 21 0;
#X connect 25 0 23 1;
#X connect 25 0 16 0;
#X connect 26 0 25 0;
#X connect 28 0 29 0;
#X connect 28 0 36 0;
#X connect 30 0 7 0;
#X connect 30 0 38 0;
#X connect 31 0 32 0;
#X connect 32 0 39 0;
#X connect 32 1 30 0;
#X connect 33 0 34 0;
#X connect 34 0 28 1;
#X connect 35 0 37 0;
#X connect 36 0 40 0;
#X connect 37 0 36 1;
#X connect 38 0 8 0;
#X connect 39 0 10 0;
#X connect 41 0 4 0;
#X connect 42 0 18 0;
#X connect 43 0 39 0;
#X restore 794 141 pd voice3L;
#N canvas 106 42 1334 830 voice1R 0;
#N canvas 373 87 629 300 hann 0;
#X obj 75 81 sig~ 1;
#X obj 93 150 cos~;
#X obj 75 176 -~;
#X text 223 151 n = number of cycles \, N = sample length;
#X text 258 121 Hanning Window = 0.5[1-cos(2πn/N)];
#X obj 75 199 *~ 0.5;
#X obj 93 118 inlet~;
#X obj 75 222 outlet~;
#X connect 0 0 2 0;
#X connect 1 0 2 1;
#X connect 2 0 5 0;
#X connect 5 0 7 0;
#X connect 6 0 1 0;
#X restore 375 626 pd hann;
#X text 94 276 Multiply window size by playback pitch;
#X text 434 627 Hanning Window;
#X obj 375 342 phasor~;
#X obj 356 679 *~;
#X text 264 592 Audio buffer;
#X text 109 340 0 to 1 \, play through buffer postiion;
#X obj 471 392 / 44.1;
#X floatatom 375 306 5 0 0 0 - - -;
#X floatatom 471 421 5 0 0 0 - - -;
#X obj 620 168 t b f;
#X obj 356 560 *~;
#X obj 332 470 *~ -1;
#X obj 332 493 +~ 1;
#X obj 399 497 samphold~;
#X obj 398 462 sig~;
#N canvas 373 87 629 300 hann 0;
#X obj 75 81 sig~ 1;
#X obj 93 150 cos~;
#X obj 75 176 -~;
#X text 223 151 n = number of cycles \, N = sample length;
#X text 258 121 Hanning Window = 0.5[1-cos(2πn/N)];
#X obj 75 199 *~ 0.5;
#X obj 93 118 inlet~;
#X obj 75 222 outlet~;
#X connect 0 0 2 0;
#X connect 1 0 2 1;
#X connect 2 0 5 0;
#X connect 5 0 7 0;
#X connect 6 0 1 0;
#X restore 647 629 pd hann;
#X text 707 628 Hanning Window;
#X obj 628 682 *~;
#X text 678 597 Audio buffer;
#X obj 628 563 *~;
#X obj 604 473 *~ -1;
#X obj 604 496 +~ 1;
#X obj 670 498 samphold~;
#X obj 670 471 sig~;
#X obj 630 419 wrap~;
#X obj 629 392 +~ 0.5;
#X text 748 499 Phase-shifted 2nd grain to smooth grain playback;
#X obj 493 736 *~;
#X obj 493 778 outlet~;
#X floatatom 375 226 20 0 0 0 - - -;
#X obj 372 23 r v1w;
#X obj 372 62 t b f;
#X obj 620 90 r v1p;
#X obj 511 666 r v1v;
#X floatatom 511 689 5 0 0 0 - - -;
#X obj 915 672 r v1f;
#X obj 897 741 *~;
#X floatatom 915 704 5 0 0 0 - - -;
#X obj 375 276 expr (pow(2 \, ($f2/12)) -1) * (44100/$f1);
#X floatatom 621 130 5 0 0 0 - - -;
#X obj 628 596 vd~ v1R;
#X obj 356 593 vd~ v1R;
#X obj 897 776 s~ v1Rfeedback;
#X connect 0 0 4 1;
#X connect 3 0 0 0;
#X connect 3 0 12 0;
#X connect 3 0 14 1;
#X connect 3 0 26 0;
#X connect 4 0 28 0;
#X connect 7 0 9 0;
#X connect 8 0 3 0;
#X connect 9 0 15 0;
#X connect 9 0 24 0;
#X connect 10 0 30 0;
#X connect 10 1 39 1;
#X connect 11 0 42 0;
#X connect 12 0 13 0;
#X connect 13 0 11 0;
#X connect 14 0 11 1;
#X connect 15 0 14 0;
#X connect 16 0 18 1;
#X connect 18 0 28 0;
#X connect 20 0 41 0;
#X connect 21 0 22 0;
#X connect 22 0 20 0;
#X connect 23 0 20 1;
#X connect 24 0 23 0;
#X connect 25 0 21 0;
#X connect 25 0 23 1;
#X connect 25 0 16 0;
#X connect 26 0 25 0;
#X connect 28 0 29 0;
#X connect 28 0 37 0;
#X connect 30 0 7 0;
#X connect 30 0 39 0;
#X connect 31 0 32 0;
#X connect 32 0 40 0;
#X connect 32 1 30 0;
#X connect 33 0 40 0;
#X connect 34 0 35 0;
#X connect 35 0 28 1;
#X connect 36 0 38 0;
#X connect 37 0 43 0;
#X connect 38 0 37 1;
#X connect 39 0 8 0;
#X connect 40 0 10 0;
#X connect 41 0 18 0;
#X connect 42 0 4 0;
#X restore 978 75 pd voice1R;
#N canvas 106 42 1334 830 voice2R 0;
#N canvas 373 87 629 300 hann 0;
#X obj 75 81 sig~ 1;
#X obj 93 150 cos~;
#X obj 75 176 -~;
#X text 223 151 n = number of cycles \, N = sample length;
#X text 258 121 Hanning Window = 0.5[1-cos(2πn/N)];
#X obj 75 199 *~ 0.5;
#X obj 93 118 inlet~;
#X obj 75 222 outlet~;
#X connect 0 0 2 0;
#X connect 1 0 2 1;
#X connect 2 0 5 0;
#X connect 5 0 7 0;
#X connect 6 0 1 0;
#X restore 375 626 pd hann;
#X text 94 276 Multiply window size by playback pitch;
#X text 434 627 Hanning Window;
#X obj 375 342 phasor~;
#X obj 356 679 *~;
#X text 264 592 Audio buffer;
#X text 109 340 0 to 1 \, play through buffer postiion;
#X obj 471 392 / 44.1;
#X floatatom 375 306 5 0 0 0 - - -;
#X floatatom 471 421 5 0 0 0 - - -;
#X obj 620 168 t b f;
#X obj 356 560 *~;
#X obj 332 470 *~ -1;
#X obj 332 493 +~ 1;
#X obj 399 497 samphold~;
#X obj 398 462 sig~;
#N canvas 373 87 629 300 hann 0;
#X obj 75 81 sig~ 1;
#X obj 93 150 cos~;
#X obj 75 176 -~;
#X text 223 151 n = number of cycles \, N = sample length;
#X text 258 121 Hanning Window = 0.5[1-cos(2πn/N)];
#X obj 75 199 *~ 0.5;
#X obj 93 118 inlet~;
#X obj 75 222 outlet~;
#X connect 0 0 2 0;
#X connect 1 0 2 1;
#X connect 2 0 5 0;
#X connect 5 0 7 0;
#X connect 6 0 1 0;
#X restore 647 629 pd hann;
#X text 707 628 Hanning Window;
#X obj 628 682 *~;
#X text 678 597 Audio buffer;
#X obj 628 563 *~;
#X obj 604 473 *~ -1;
#X obj 604 496 +~ 1;
#X obj 670 498 samphold~;
#X obj 670 471 sig~;
#X obj 630 419 wrap~;
#X obj 629 392 +~ 0.5;
#X text 748 499 Phase-shifted 2nd grain to smooth grain playback;
#X obj 493 736 *~;
#X obj 493 778 outlet~;
#X floatatom 375 226 20 0 0 0 - - -;
#X obj 372 23 r v1w;
#X obj 372 62 t b f;
#X obj 511 666 r v1v;
#X floatatom 511 689 5 0 0 0 - - -;
#X obj 915 672 r v1f;
#X obj 897 741 *~;
#X floatatom 915 704 5 0 0 0 - - -;
#X obj 375 276 expr (pow(2 \, ($f2/12)) -1) * (44100/$f1);
#X floatatom 621 130 5 0 0 0 - - -;
#X obj 897 776 s~ v2Rfeedback;
#X obj 620 90 r v2p;
#X obj 628 596 vd~ v1R;
#X obj 356 593 vd~ v1R;
#X connect 0 0 4 1;
#X connect 3 0 0 0;
#X connect 3 0 12 0;
#X connect 3 0 14 1;
#X connect 3 0 26 0;
#X connect 4 0 28 0;
#X connect 7 0 9 0;
#X connect 8 0 3 0;
#X connect 9 0 15 0;
#X connect 9 0 24 0;
#X connect 10 0 30 0;
#X connect 10 1 38 1;
#X connect 11 0 43 0;
#X connect 12 0 13 0;
#X connect 13 0 11 0;
#X connect 14 0 11 1;
#X connect 15 0 14 0;
#X connect 16 0 18 1;
#X connect 18 0 28 0;
#X connect 20 0 42 0;
#X connect 21 0 22 0;
#X connect 22 0 20 0;
#X connect 23 0 20 1;
#X connect 24 0 23 0;
#X connect 25 0 21 0;
#X connect 25 0 23 1;
#X connect 25 0 16 0;
#X connect 26 0 25 0;
#X connect 28 0 29 0;
#X connect 28 0 36 0;
#X connect 30 0 7 0;
#X connect 30 0 38 0;
#X connect 31 0 32 0;
#X connect 32 0 39 0;
#X connect 32 1 30 0;
#X connect 33 0 34 0;
#X connect 34 0 28 1;
#X connect 35 0 37 0;
#X connect 36 0 40 0;
#X connect 37 0 36 1;
#X connect 38 0 8 0;
#X connect 39 0 10 0;
#X connect 41 0 39 0;
#X connect 42 0 18 0;
#X connect 43 0 4 0;
#X restore 1011 109 pd voice2R;
#N canvas 106 42 1334 830 voice3R 0;
#N canvas 373 87 629 300 hann 0;
#X obj 75 81 sig~ 1;
#X obj 93 150 cos~;
#X obj 75 176 -~;
#X text 223 151 n = number of cycles \, N = sample length;
#X text 258 121 Hanning Window = 0.5[1-cos(2πn/N)];
#X obj 75 199 *~ 0.5;
#X obj 93 118 inlet~;
#X obj 75 222 outlet~;
#X connect 0 0 2 0;
#X connect 1 0 2 1;
#X connect 2 0 5 0;
#X connect 5 0 7 0;
#X connect 6 0 1 0;
#X restore 375 626 pd hann;
#X text 94 276 Multiply window size by playback pitch;
#X text 434 627 Hanning Window;
#X obj 375 342 phasor~;
#X obj 356 679 *~;
#X text 264 592 Audio buffer;
#X text 109 340 0 to 1 \, play through buffer postiion;
#X obj 471 392 / 44.1;
#X floatatom 375 306 5 0 0 0 - - -;
#X floatatom 471 421 5 0 0 0 - - -;
#X obj 620 168 t b f;
#X obj 356 560 *~;
#X obj 332 470 *~ -1;
#X obj 332 493 +~ 1;
#X obj 399 497 samphold~;
#X obj 398 462 sig~;
#N canvas 373 87 629 300 hann 0;
#X obj 75 81 sig~ 1;
#X obj 93 150 cos~;
#X obj 75 176 -~;
#X text 223 151 n = number of cycles \, N = sample length;
#X text 258 121 Hanning Window = 0.5[1-cos(2πn/N)];
#X obj 75 199 *~ 0.5;
#X obj 93 118 inlet~;
#X obj 75 222 outlet~;
#X connect 0 0 2 0;
#X connect 1 0 2 1;
#X connect 2 0 5 0;
#X connect 5 0 7 0;
#X connect 6 0 1 0;
#X restore 647 629 pd hann;
#X text 707 628 Hanning Window;
#X obj 628 682 *~;
#X text 678 597 Audio buffer;
#X obj 628 563 *~;
#X obj 604 473 *~ -1;
#X obj 604 496 +~ 1;
#X obj 670 498 samphold~;
#X obj 670 471 sig~;
#X obj 630 419 wrap~;
#X obj 629 392 +~ 0.5;
#X text 748 499 Phase-shifted 2nd grain to smooth grain playback;
#X obj 493 736 *~;
#X obj 493 778 outlet~;
#X floatatom 375 226 20 0 0 0 - - -;
#X obj 372 23 r v1w;
#X obj 372 62 t b f;
#X obj 511 666 r v1v;
#X floatatom 511 689 5 0 0 0 - - -;
#X obj 915 672 r v1f;
#X obj 897 741 *~;
#X floatatom 915 704 5 0 0 0 - - -;
#X obj 375 276 expr (pow(2 \, ($f2/12)) -1) * (44100/$f1);
#X floatatom 621 130 5 0 0 0 - - -;
#X obj 897 776 s~ v3Rfeedback;
#X obj 628 596 vd~ v1R;
#X obj 356 593 vd~ v1R;
#X obj 620 90 r v3p;
#X connect 0 0 4 1;
#X connect 3 0 0 0;
#X connect 3 0 12 0;
#X connect 3 0 14 1;
#X connect 3 0 26 0;
#X connect 4 0 28 0;
#X connect 7 0 9 0;
#X connect 8 0 3 0;
#X connect 9 0 15 0;
#X connect 9 0 24 0;
#X connect 10 0 30 0;
#X connect 10 1 38 1;
#X connect 11 0 42 0;
#X connect 12 0 13 0;
#X connect 13 0 11 0;
#X connect 14 0 11 1;
#X connect 15 0 14 0;
#X connect 16 0 18 1;
#X connect 18 0 28 0;
#X connect 20 0 41 0;
#X connect 21 0 22 0;
#X connect 22 0 20 0;
#X connect 23 0 20 1;
#X connect 24 0 23 0;
#X connect 25 0 21 0;
#X connect 25 0 23 1;
#X connect 25 0 16 0;
#X connect 26 0 25 0;
#X connect 28 0 29 0;
#X connect 28 0 36 0;
#X connect 30 0 7 0;
#X connect 30 0 38 0;
#X connect 31 0 32 0;
#X connect 32 0 39 0;
#X connect 32 1 30 0;
#X connect 33 0 34 0;
#X connect 34 0 28 1;
#X connect 35 0 37 0;
#X connect 36 0 40 0;
#X connect 37 0 36 1;
#X connect 38 0 8 0;
#X connect 39 0 10 0;
#X connect 41 0 18 0;
#X connect 42 0 4 0;
#X connect 43 0 39 0;
#X restore 1033 144 pd voice3R;
#X obj 222 169 r~ v3Lfeedback;
#X obj 174 138 r~ v2Lfeedback;
#X obj 124 108 r~ v1Lfeedback;
#X obj 420 112 r~ v1Rfeedback;
#X obj 463 142 r~ v2Rfeedback;
#X obj 518 173 r~ v3Rfeedback;
#X obj 967 507 dac~ 1 2;
#X obj 960 444 vfreeverb~;
#X msg 1062 252 room \$1;
#X msg 1209 252 dry \$1;
#X msg 1131 252 wet \$1;
#X obj 1061 226 r space;
#X obj 1209 226 r dryval;
#X obj 1131 226 r wetval;
#X connect 0 0 2 0;
#X connect 0 1 3 0;
#X connect 1 0 16 0;
#X connect 4 0 16 0;
#X connect 5 0 16 0;
#X connect 6 0 16 1;
#X connect 7 0 16 1;
#X connect 8 0 16 1;
#X connect 9 0 2 0;
#X connect 10 0 2 0;
#X connect 11 0 2 0;
#X connect 12 0 3 0;
#X connect 13 0 3 0;
#X connect 14 0 3 0;
#X connect 16 0 15 0;
#X connect 16 1 15 1;
#X connect 17 0 16 2;
#X connect 18 0 16 2;
#X connect 19 0 16 2;
#X connect 20 0 17 0;
#X connect 21 0 18 0;
#X connect 22 0 19 0;
#X restore 75 678 pd Playback;
#X obj 177 355 s v1p;
#X obj 16 53 loadbang;
#X obj 16 122 s snapshot_on;
#X msg 16 85 1;
#X text 12 21 Trigger Snapshot on Launch;
#X text 437 117 Grain Size;
#X text 526 117 Feedback;
#N canvas 30 311 450 300 Grain 0;
#X obj 94 162 s v1w;
#X obj 138 162 s v2w;
#X obj 182 162 s v3w;
#X obj 226 161 s v4w;
#X obj 219 68 sigtonum 50;
#X obj 219 133 + 1000;
#X obj 219 38 inlet~;
#X obj 219 100 * 60000;
#X connect 4 0 7 0;
#X connect 5 0 0 0;
#X connect 5 0 1 0;
#X connect 5 0 2 0;
#X connect 5 0 3 0;
#X connect 6 0 4 0;
#X connect 7 0 5 0;
#X restore 449 87 pd Grain;
#N canvas 0 25 450 300 FB 0;
#X obj 57 168 s v1f;
#X obj 101 168 s v2f;
#X obj 144 167 s v3f;
#X obj 187 167 s v4f;
#X obj 81 76 sigtonum 50;
#X obj 80 37 inlet~;
#X obj 81 103 * 0.8;
#X connect 4 0 6 0;
#X connect 5 0 4 0;
#X connect 6 0 0 0;
#X connect 6 0 1 0;
#X connect 6 0 2 0;
#X connect 6 0 3 0;
#X restore 539 87 pd FB;
#N canvas 0 25 450 300 Vol 0;
#X obj 83 82 sigtonum 50;
#X obj 83 53 inlet~;
#X obj 83 114 * 0.8;
#X obj 47 166 s v1v;
#X obj 99 165 s v2v;
#X obj 156 166 s v3v;
#X obj 215 166 s v4v;
#X connect 0 0 2 0;
#X connect 1 0 0 0;
#X connect 2 0 3 0;
#X connect 2 0 4 0;
#X connect 2 0 5 0;
#X connect 2 0 6 0;
#X restore 605 85 pd Vol;
#X text 602 116 Volume;
#X msg 839 336 7;
#N canvas 48 57 1392 586 Buttons 0;
#X obj 27 31 loadbang;
#X obj 27 103 s bela_setDigital;
#N canvas 0 25 1351 722 scale 0;
#X obj 412 36 r bela_digitalIn18;
#X obj 412 65 sel 0 1;
#X obj 434 133 i;
#X obj 493 135 + 1;
#X obj 434 170 % 4;
#X obj 84 406 s v2p;
#X msg 84 379 -12;
#X obj 140 405 s v3p;
#X obj 191 404 s v4p;
#X obj 30 405 s v1p;
#X obj 340 402 s v2p;
#X msg 340 375 -12;
#X msg 447 375 -24;
#X obj 396 401 s v3p;
#X obj 447 400 s v4p;
#X obj 286 401 s v1p;
#X msg 287 376 0;
#X obj 119 326 tgl 15 0 empty empty empty 17 7 0 10 -262144 -1 -1 0
1;
#X obj 378 319 tgl 15 0 empty empty empty 17 7 0 10 -262144 -1 -1 0
1;
#X msg 396 376 4;
#X obj 588 399 s v2p;
#X msg 588 372 -12;
#X msg 695 372 -24;
#X obj 644 398 s v3p;
#X obj 695 397 s v4p;
#X obj 534 398 s v1p;
#X msg 535 373 0;
#X obj 626 309 tgl 15 0 empty empty empty 17 7 0 10 -262144 -1 -1 0
1;
#X msg 644 373 3;
#X obj 854 396 s v2p;
#X obj 910 395 s v3p;
#X obj 961 394 s v4p;
#X obj 800 395 s v1p;
#X obj 892 306 tgl 15 0 empty empty empty 17 7 0 10 -262144 -1 -1 0
1;
#X obj 437 218 sel 0 1 2 3;
#X text 332 458 Octave & Major 3rd;
#X text 570 455 Octave & Minor 3rd;
#X text 43 458 Octaves;
#X msg 31 380 -24;
#X msg 140 380 0;
#X msg 191 379 12;
#X text 856 456 Octaves & Fifths;
#X msg 801 370 -24;
#X msg 854 369 0;
#X msg 910 370 7;
#X msg 961 369 -19;
#X obj 565 185 print int:;
#X connect 0 0 1 0;
#X connect 1 1 2 0;
#X connect 2 0 3 0;
#X connect 2 0 4 0;
#X connect 3 0 2 1;
#X connect 4 0 34 0;
#X connect 4 0 46 0;
#X connect 6 0 5 0;
#X connect 11 0 10 0;
#X connect 12 0 14 0;
#X connect 16 0 15 0;
#X connect 17 0 38 0;
#X connect 17 0 6 0;
#X connect 17 0 39 0;
#X connect 17 0 40 0;
#X connect 18 0 16 0;
#X connect 18 0 11 0;
#X connect 18 0 19 0;
#X connect 18 0 12 0;
#X connect 19 0 13 0;
#X connect 21 0 20 0;
#X connect 22 0 24 0;
#X connect 26 0 25 0;
#X connect 27 0 26 0;
#X connect 27 0 21 0;
#X connect 27 0 28 0;
#X connect 27 0 22 0;
#X connect 28 0 23 0;
#X connect 33 0 42 0;
#X connect 33 0 43 0;
#X connect 33 0 44 0;
#X connect 33 0 45 0;
#X connect 34 0 17 0;
#X connect 34 1 18 0;
#X connect 34 2 27 0;
#X connect 34 3 33 0;
#X connect 38 0 9 0;
#X connect 39 0 7 0;
#X connect 40 0 8 0;
#X connect 42 0 32 0;
#X connect 43 0 29 0;
#X connect 44 0 30 0;
#X connect 45 0 31 0;
#X restore 24 137 pd scale;
#N canvas 0 25 1169 735 bypass 0;
#X obj 24 58 sel 0 1;
#X obj 57 128 i;
#X obj 116 130 + 1;
#X obj 60 177 % 2;
#X obj 60 213 sel 0 1;
#X msg 28 379 \; pd dsp 1;
#X msg 123 377 \; pd dsp 0;
#X obj 29 319 tgl 15 0 empty empty empty 17 7 0 10 -262144 -1 -1 0
1;
#X obj 124 317 tgl 15 0 empty empty empty 17 7 0 10 -262144 -1 -1 0
1;
#X obj 24 29 r bela_digitalIn17;
#X connect 0 1 1 0;
#X connect 1 0 2 0;
#X connect 1 0 3 0;
#X connect 2 0 1 1;
#X connect 3 0 4 0;
#X connect 4 0 7 0;
#X connect 4 1 8 0;
#X connect 7 0 5 0;
#X connect 8 0 6 0;
#X connect 9 0 0 0;
#X restore 22 169 pd bypass;
#X msg 27 68 in 17 \, in 18;
#X connect 0 0 4 0;
#X connect 4 0 1 0;
#X restore 74 725 pd Buttons;
#X obj 607 26 adc~ 3 4 5 6;
#X obj 1059 176 s space;
#X obj 938 56 sigtonum 50;
#X floatatom 938 85 5 0 0 0 - - -;
#X msg 938 107 1;
#X obj 938 130 -;
#X obj 939 240 s dryval;
#X obj 1019 240 s wetval;
#X connect 1 0 2 0;
#X connect 2 0 0 0;
#X connect 3 0 19 0;
#X connect 5 0 6 0;
#X connect 6 0 8 0;
#X connect 9 0 11 0;
#X connect 11 0 10 0;
#X connect 19 0 4 0;
#X connect 21 0 23 0;
#X connect 21 1 17 0;
#X connect 21 2 16 0;
#X connect 21 3 15 0;
#X connect 23 0 24 0;
#X connect 23 0 22 0;
#X connect 24 0 25 0;
#X connect 24 0 26 1;
#X connect 24 0 28 0;
#X connect 25 0 26 0;
#X connect 26 0 27 0;
